<svg xmlns="http://www.w3.org/2000/svg" width="48" height="48" id="candidate"><g fill="#fff" transform="translate(8 -1013.362)"><circle cx="16" cy="1037.362" r="24" fill="#3a6c87"></circle><path style="line-height:normal;text-indent:0;text-align:start;text-decoration-line:none;text-decoration-style:solid;text-decoration-color:#000;text-transform:none;block-progression:tb;isolation:auto;mix-blend-mode:normal" d="M16 1c-1.059 0-2 .756-2 1.78 0 .075.017.146.027.22H11.5a.5.5 0 0 0-.5.5V4H5.5a.5.5 0 0 0-.5.5v26a.5.5 0 0 0 .5.5h21a.5.5 0 0 0 .5-.5v-26a.5.5 0 0 0-.5-.5H21v-.5a.5.5 0 0 0-.5-.5h-2.527c.01-.074.027-.145.027-.22C18 1.755 17.059 1 16 1Zm0 1c.598 0 1 .39 1 .78 0 .096-.023.189-.066.277a.727.727 0 0 1-.082.129.5.5 0 0 0 .464.814H20v3h-8V4h2.682a.5.5 0 0 0 .466-.814.744.744 0 0 1-.082-.13A.616.616 0 0 1 15 2.78c0-.39.402-.779 1-.779ZM6 5h5v1H7.5a.5.5 0 0 0-.5.5v22a.5.5 0 0 0 .5.5h13.873a.5.5 0 0 0 .06-.004.5.5 0 0 0 .42-.14l3-3.002a.5.5 0 0 0 .145-.39.5.5 0 0 0 .002-.052V6.5a.5.5 0 0 0-.5-.5H21V5h5v25H6V5Zm2 2h3v.5a.5.5 0 0 0 .5.5h9a.5.5 0 0 0 .5-.5V7h3v18h-2.5a.5.5 0 0 0-.5.5V28H8V7Zm6.441 2a.5.5 0 0 0 .051 1h8a.5.5 0 1 0 0-1h-8a.5.5 0 0 0-.05 0zm-2.084.002a.5.5 0 0 0-.34.158l-1.554 1.62-.596-.622a.5.5 0 1 0-.722.694l.957.998a.5.5 0 0 0 .722 0l1.914-1.998a.5.5 0 0 0-.38-.85ZM14.45 11a.5.5 0 0 0 .051 1h4a.5.5 0 1 0 0-1h-4a.5.5 0 0 0-.05 0zm-.008 3a.5.5 0 0 0 .051 1h8a.5.5 0 1 0 0-1h-8a.5.5 0 0 0-.05 0zm-2.084.002a.5.5 0 0 0-.34.158l-1.554 1.62-.596-.622a.5.5 0 1 0-.722.694l.957.998a.5.5 0 0 0 .722 0l1.914-1.998a.5.5 0 0 0-.38-.85ZM14.6 16a.5.5 0 0 0 .05 1H20a.5.5 0 1 0 0-1h-5.35a.5.5 0 0 0-.05 0zm-4.1 3c-.822 0-1.5.678-1.5 1.5s.678 1.5 1.5 1.5 1.5-.678 1.5-1.5-.678-1.5-1.5-1.5Zm3.941 0a.5.5 0 0 0 .051 1h8a.5.5 0 1 0 0-1h-8a.5.5 0 0 0-.05 0zM10.5 20c.286 0 .5.214.5.5 0 .286-.214.5-.5.5a.488.488 0 0 1-.5-.5c0-.286.214-.5.5-.5Zm3.95 1a.5.5 0 0 0 .05 1h2a.5.5 0 1 0 0-1h-2a.5.5 0 0 0-.05 0zm-3.95 3c-.822 0-1.5.678-1.5 1.5s.678 1.5 1.5 1.5 1.5-.678 1.5-1.5-.678-1.5-1.5-1.5Zm3.95 0a.5.5 0 0 0 .05 1h5a.5.5 0 1 0 0-1h-5a.5.5 0 0 0-.05 0zm-3.95 1c.286 0 .5.214.5.5 0 .286-.214.5-.5.5a.488.488 0 0 1-.5-.5c0-.286.214-.5.5-.5Zm3.95 1a.5.5 0 0 0 .05 1h3a.5.5 0 1 0 0-1h-3a.5.5 0 0 0-.05 0zM22 26h1.293L22 27.293V26Z" color="#000" font-family="sans-serif" font-weight="400" overflow="visible" transform="translate(0 1021.362)"></path></g></svg>